<?xml version="1.0" encoding="UTF-8"?>
<svg width="500px" height="500px" viewBox="0 0 16 16" version="1.1" xmlns="http://www.w3.org/2000/svg" xmlns:xlink="http://www.w3.org/1999/xlink">
    <!-- Generator: Sketch 41.2 (35397) - http://www.bohemiancoding.com/sketch -->
    <title>favicon_HD</title>
    <desc>Created with Sketch.</desc>
    <defs></defs>
    <g id="AIMG" stroke="none" stroke-width="1" fill="none" fill-rule="evenodd">
        <g id="favicon_HD" fill="#B5191D">
            <g id="Fill-49-+-Fill-50-+-Fill-51" transform="translate(25.000000, 71.000000)">
                <path d="M27.6200464,246.861958 C28.4531734,244.279799 29.1287539,241.203638 28.4531734,238.517337 C23.1419892,225.31815 19.2727554,211.486107 15.809404,197.488506 C15.1418344,193.456385 15.6438467,188.820782 14.4715944,185.186533 L13.6865325,184.179837 C12.5062693,184.059675 12.6237616,185.73928 11.8921053,186.41219 C10.5489551,196.481811 8.69578173,206.33781 7.13366873,216.295279 C5.05886223,224.009714 2.42596749,231.518537 0.634210526,239.409211 C0.861184211,242.439977 -0.0894349845,246.189048 1.97736068,248.819272 C4.83989938,254.018305 10.8747291,255.364125 16.3674923,255.155844 C21.4677245,255.081076 24.4317337,250.33065 27.6200464,246.861958" id="Fill-49"></path>
                <path d="M34.9766641,267.337655 C34.3758514,263.671362 34.8297988,259.457663 33.7670279,256.167879 L33.0487229,255.254644 C31.9806115,255.145163 32.0900929,256.667221 31.4305341,257.278715 C30.2102167,266.419079 28.5279412,275.359172 27.1046827,284.392724 C25.2301471,291.396865 22.842918,298.208746 21.2167183,305.359752 C21.4169892,308.102128 20.5571594,311.506734 22.431695,313.896633 C25.0298762,318.620356 30.5012771,319.829992 35.484017,319.632392 C40.1089396,319.570975 42.8032508,315.263816 45.6924923,312.118228 C46.456192,309.792415 47.0676858,306.991293 46.456192,304.545317 C41.6309985,292.569118 38.119582,280.032159 34.9766641,267.337655" id="Fill-50"></path>
                <path d="M411.830418,126.929063 L408.692841,144.072252 C408.770279,154.550426 405.200116,171.93928 408.092028,174.62291 C409.966563,174.385255 416.954683,177.450735 422.941447,177.066215 C423.422098,176.956734 427.101741,177.367957 427.56904,177.226432 C425.635759,183.974226 419.718421,190.332159 417.104218,196.428406 C410.019969,198.318963 403.256153,198.505882 395.07709,199.654102 C383.586881,201.055998 375.941873,201.910488 353.890712,201.640789 C345.078793,202.775658 331.305495,199.205495 323.241254,196.772872 C317.257159,194.959752 313.708359,193.106579 307.561378,191.891602 C302.103328,193.795511 297.529141,199.25089 293.638545,203.579412 C288.103057,209.98007 284.813274,217.406115 279.616912,224.16459 C273.902515,230.992492 269.429799,238.357121 263.005108,244.928676 C261.806153,245.177012 260.249381,244.837887 260.249381,243.446672 C260.604528,236.359752 265.087926,230.992492 267.160062,224.591834 C271.221556,210.767802 276.679605,197.515209 277.977361,182.468189 C277.464667,181.867376 277.464667,180.745859 277.197639,179.870008 C274.602128,177.533514 271.574033,176.502786 268.722175,175.130263 C253.587036,168.366447 238.622794,161.282198 223.06041,155.666602 C216.221827,154.288738 213.850619,151.792028 206.232314,152.488971 C208.918615,147.973529 210.016099,145.183088 212.60894,140.766447 L214.876006,135.644853 C225.16726,137.030728 231.276858,141.468731 241.130186,143.984133 C244.938003,143.628986 249.522872,144.926741 252.636416,142.857276 C258.340132,137.762384 260.756734,130.229528 266.051896,124.336223 C267.079954,124.432353 267.945124,125.55654 268.297601,126.424381 C268.989203,135.337771 268.38305,145.271207 269.680805,154.189938 C274.081424,160.334249 281.344582,161.466447 287.406115,164.569311 C307.39048,171.568111 327.975658,177.290519 348.563506,183.069002 C360.67322,183.605728 374.016602,182.655108 380.158243,175.600232 C385.432043,162.972485 394.414861,150.042995 397.95298,136.630186 C405.216138,119.42024 413.256347,96.861726 417.058824,86.2446981 C418.759791,80.9708978 419.774497,75.8599845 420.714435,73.592918 C421.651703,71.3285217 423.16041,73.2778251 423.16041,73.2778251 C420.431385,90.3809598 415.713003,105.494737 411.830418,126.929063 L411.830418,126.929063 Z M290.009636,152.120472 C294.041757,148.854721 296.685333,149.308669 302.661416,146.018885 L304.186146,145.450116 C305.304992,145.183088 306.33839,144.072252 307.208901,143.37798 C311.79911,132.64613 308.771014,119.679257 308.341099,107.908669 L308.341099,82.3220588 C309.126161,82.2232585 308.25298,80.8453947 309.126161,80.7679567 C310.504025,80.6744969 309.206269,78.3433437 310.415906,78.1564241 C315.516138,94.322291 320.870046,111.283901 328.317454,127.022523 C331.959714,131.612732 335.148026,138.961339 342.165519,138.704992 C355.562307,138.704992 367.292841,135.337771 379.730998,136.782392 C382.943344,137.172252 386.518847,137.255031 389.490867,137.887887 C387.749845,142.387307 385.229102,150.347407 382.377245,154.408901 C377.768344,154.732005 374.865751,154.259365 371.21548,154.043073 C367.041834,153.928251 362.654567,154.534404 360.059056,156.099187 C356.854721,160.935062 351.679721,165.357043 347.006734,168.29168 C346.056115,168.027322 345.53274,167.33305 345.53274,166.222214 C345.620859,162.921749 346.128212,158.598568 345.100155,155.311455 C340.520627,152.027012 333.682043,154.456966 327.975658,154.029721 C323.826045,155.567802 319.155728,155.74404 315.34257,158.168653 C310.923259,160.406347 308.271672,160.547872 303.606695,162.200774 C297.814861,159.103251 291.342105,157.610565 285.280573,155.103173 C285.021556,153.367492 289.064358,152.707933 290.009636,152.120472 L290.009636,152.120472 Z M447.705611,149.762616 C449.257043,141.866602 449.975348,134.517995 449.975348,126.424381 C449.975348,56.6473297 410.575387,0.0748065015 325.826084,0.0748065015 C288.03096,0.0748065015 250.345317,17.8588622 226.710681,36.5214396 C204.408514,18.9136223 169.598762,2.1122291 133.998607,0.267066563 L133.998607,0.25371517 C133.889125,0.248374613 133.763622,0.245704334 133.651471,0.240363777 C133.616757,0.237693498 133.579373,0.232352941 133.544659,0.232352941 L133.544659,0.23502322 C131.646091,0.149574303 129.42709,0.0748065015 127.584598,0.0748065015 C42.8352941,0.0748065015 3.4380031,56.6473297 3.4380031,126.424381 C3.4380031,133.674187 4.1376161,140.854567 5.39531734,147.936146 C9.95081269,145.794582 14.5463622,143.687732 19.1846362,141.725077 C28.957856,138.961339 38.7390867,135.930573 48.0717105,132.64613 C52.7366873,130.835681 51.2680341,125.641989 51.8795279,122.10654 C49.5376935,111.36668 44.6964783,102.124845 40.7204334,92.0845975 C36.8378483,86.8081269 36.5708204,80.3246904 33.011339,75.1309985 C32.7603328,73.4033282 30.0793731,71.0775155 32.4105263,70.0307663 L70.913274,108.525503 C75.0602167,113.785952 79.9975619,117.089087 84.7479876,122.272098 L92.2674923,123.217376 L137.341796,124.170666 C140.658282,124.678019 144.271169,125.145317 147.649071,125.559211 L147.651741,125.561881 C147.686455,125.567221 147.723839,125.569892 147.761223,125.575232 C147.817299,125.583243 147.876045,125.588584 147.932121,125.596594 L147.92945,125.593924 C160.437036,127.094621 172.610836,127.869002 185.062345,129.553947 C185.59106,129.807624 185.759288,130.678135 186.712577,130.34435 L176.597562,146.998878 C174.752399,148.8387 171.508011,147.180457 168.479915,146.665093 L144.522175,146.665093 C136.727632,154.534404 131.985217,163.618692 124.882276,172.267724 C123.317492,174.086184 120.911571,174.775116 119.087771,176.411997 C118.388158,176.679025 117.878135,176.241099 117.704567,175.725735 L117.530998,150.216563 C116.751277,146.92411 114.332005,143.033514 110.791215,142.245782 L71.0841718,142.681037 C59.9143963,144.33394 49.6311533,148.478212 40.2050697,153.762693 C34.9259288,157.127245 25.3503096,162.764203 25.3503096,162.764203 L12.8293731,170.97798 C12.8293731,170.97798 28.6774768,210.105573 50.979644,236.399807 C53.615209,230.559907 56.0505031,224.578483 59.0572368,219.053676 L66.2402864,201.504605 C65.7142415,198.468498 66.8437693,194.906347 63.7248839,192.673994 C56.6299536,184.553676 48.3574303,183.611068 39.1876935,180.585642 L39.1102554,180.518885 L25.7481811,174.414628 C25.7481811,174.414628 26.5652864,170.999342 35.6762771,165.883088 L42.0342105,164.590673 L81.4528638,177.194389 C91.9230263,180.048916 101.952593,184.11041 113.816641,183.776625 L113.816641,184.032972 C128.95178,185.336068 146.420743,187.218615 158.872252,178.665712 C161.705418,177.042183 164.837655,175.023452 167.654799,172.903251 L167.654799,172.908591 C167.684172,172.887229 167.713545,172.860526 167.742918,172.839164 C167.782972,172.807121 167.828367,172.777748 167.871091,172.745704 C167.868421,172.743034 167.868421,172.740364 167.868421,172.740364 C172.07945,169.522678 175.975387,165.752245 178.677709,161.372988 C190.886223,139.132237 204.974613,117.003638 218.117724,95.2916022 C218.46219,95.2916022 219.32469,95.3770511 219.073684,94.7655573 L221.754644,94.7655573 C221.674536,94.9391254 221.674536,95.1928019 221.941563,95.2916022 L222.451587,95.2916022 C223.135178,97.8791022 221.410178,99.7002322 220.806695,101.337113 C218.897446,103.246362 218.731889,106.092879 217.159094,108.525503 C215.183088,114.568344 211.551509,120.888893 208.704992,126.595279 C202.200193,141.647639 194.59257,156.099187 187.753986,170.97798 C186.891486,175.130263 185.513622,181.007546 189.847485,184.032972 L204.544698,183.605728 C215.695782,180.302593 228.99911,176.064861 239.984636,172.163584 C249.589628,175.512113 254.858088,178.363971 260.738042,182.166447 L259.461649,183.333359 C252.28661,183.856734 244.075503,188.700619 237.410488,190.420279 C237.076703,192.585875 237.24226,195.103947 237.162152,197.341641 C237.076703,203.320395 247.01548,203.667531 245.114241,210.583553 C242.953986,211.451393 242.422601,209.114899 240.78839,208.674303 C231.354296,204.783707 223.479644,197.958475 212.499458,198.29226 C202.827709,198.898413 193.057159,200.124071 183.040944,200.650116 C178.675039,200.87442 173.884559,200.994582 169.427864,200.804992 C162.324923,201.317686 153.852128,200.377748 147.029567,202.276316 C146.159056,202.882469 146.159056,204.006656 146.252515,205.122833 C145.81726,205.050735 145.81726,205.566099 145.81726,205.915906 C142.615596,213.859985 143.819892,224.327477 146.252515,232.458475 L146.252515,238.357121 C146.065596,238.25832 145.902709,238.434559 145.81726,238.522678 C146.591641,238.784365 146.065596,239.823104 146.252515,240.426587 C145.81726,241.115519 144.591602,240.693615 143.731772,240.771053 C135.873142,225.975039 124.030457,210.231076 109.218421,200.804992 C102.729644,198.561958 93.9177245,198.380379 87.5090557,200.97856 C74.8092105,211.977438 65.8931502,226.057817 58.6326625,239.294389 C57.8956656,240.381192 57.1079334,241.449303 56.3015093,242.533437 C122.316138,317.010178 226.710681,358.541022 226.710681,358.541022 C226.710681,358.541022 251.493537,348.046827 284.313932,329.093189 C284.356656,329.069156 284.396711,329.045124 284.439435,329.021091 C284.471478,329.002399 284.500851,328.986378 284.532895,328.967686 C331.377593,301.89106 394.828754,257.42558 427.884133,200.658127 C427.884133,200.658127 436.757469,186.516331 441.742879,171.255689 C441.481192,171.042067 436.789512,167.463893 436.469079,167.301006 C427.958901,163.114009 424.818653,162.561262 424.818653,162.561262 C424.818653,162.561262 418.041486,160.214087 418.049497,160.214087 C416.212345,160.256811 414.185604,159.722755 413.795743,158.961726 C413.611494,157.089861 415.037423,153.137848 414.460642,148.8387 C413.809094,144.016176 414.946633,140.248413 414.946633,140.248413 C431.061765,142.381966 439.497175,146.590325 447.705611,149.762616 L447.705611,149.762616 Z" id="Fill-51"></path>
            </g>
        </g>
    </g>
</svg>